# xmcd
#
# Track frame offsets:
#	182
#	13475
#	29435
#	41342
#	56562
#	69980
#	81680
#	92837
#	109665
#	123502
#
# Disc length: 1810 seconds
#
# Revision: 0
# Processed by: cddbd v1.5.2PL0 Copyright (c) Steve Scherf et al.
# Submitted via: audiograbber 1.83.01
#
DISCID=8807100a
DTITLE=Rhonda Vincent - Trouble Free
DYEAR=1996
DGENRE=Bluegrass
TTITLE0=Somebody
TTITLE1=You Beat All I've Ever Seen
TTITLE2=Trouble Free
TTITLE3=It Ain't Nothin' New
TTITLE4=An Old Memory (Found Its Way Back Home Again)
TTITLE5=What More Do You Want From Me
TTITLE6=If I Could Stop Loving You
TTITLE7=At The Corner Of Walk And Don't Walk
TTITLE8=The Blues Ain't Workin' On Me
TTITLE9=When I'm Through Fallin' Apart
EXTD=
EXTT0=
EXTT1=
EXTT2=
EXTT3=
EXTT4=
EXTT5=
EXTT6=
EXTT7=
EXTT8=
EXTT9=
PLAYORDER=
